# Blender v2.79 (sub 0) OBJ File: 'untitled.blend'
# www.blender.org
o Cube
v 1.003271 -0.141866 -0.089458
v 1.003271 -0.141866 0.077812
v -1.085657 -0.141866 0.077812
v -1.085656 -0.141866 -0.089459
v 1.003271 0.173681 -0.089458
v 1.003270 0.173681 0.077813
v -1.085657 0.173681 0.077812
v -1.085657 0.173681 -0.089458
vt 0.500000 0.000000
vt 1.000000 0.000000
vt 1.000000 0.500000
vt 0.500000 0.500000
vt 0.500000 0.000000
vt 0.500000 0.500000
vt 0.000000 0.500000
vt 0.000000 0.000000
vt 0.078887 1.000000
vt 0.000000 1.000000
vt 0.000000 0.500000
vt 0.078887 0.500000
vt 0.236660 1.000000
vt 0.157774 1.000000
vt 0.157774 0.500000
vt 0.236660 0.500000
vt 0.315547 1.000000
vt 0.236660 1.000000
vt 0.236660 0.500000
vt 0.315547 0.500000
vt 0.078887 0.500000
vt 0.157774 0.500000
vt 0.157774 1.000000
vt 0.078887 1.000000
vn 0.0000 -1.0000 0.0000
vn 0.0000 1.0000 0.0000
vn 1.0000 0.0000 0.0000
vn -0.0000 -0.0000 1.0000
vn -1.0000 -0.0000 -0.0000
vn 0.0000 0.0000 -1.0000
s off
f 1/1/1 2/2/1 3/3/1 4/4/1
f 5/5/2 8/6/2 7/7/2 6/8/2
f 1/9/3 5/10/3 6/11/3 2/12/3
f 2/13/4 6/14/4 7/15/4 3/16/4
f 3/17/5 7/18/5 8/19/5 4/20/5
f 5/21/6 1/22/6 4/23/6 8/24/6
