# Blender v2.79 (sub 0) OBJ File: 'TestLevel.blend'
# www.blender.org
mtllib TestLevel.mtl
o Cone
v -1.200368 -0.178552 -0.803868
v -1.200368 1.821448 0.196132
v -1.005278 -0.178552 -0.784653
v -0.817685 -0.178552 -0.727747
v -0.644798 -0.178552 -0.635338
v -0.493262 -0.178552 -0.510975
v -0.368899 -0.178552 -0.359438
v -0.276489 -0.178552 -0.186551
v -0.219583 -0.178552 0.001042
v -0.200368 -0.178552 0.196132
v -0.219583 -0.178552 0.391222
v -0.276489 -0.178552 0.578815
v -0.368899 -0.178552 0.751702
v -0.493262 -0.178552 0.903239
v -0.644798 -0.178552 1.027602
v -0.817685 -0.178552 1.120012
v -1.005278 -0.178552 1.176917
v -1.200369 -0.178552 1.196132
v -1.395459 -0.178552 1.176917
v -1.583052 -0.178552 1.120011
v -1.755939 -0.178552 1.027601
v -1.907476 -0.178552 0.903238
v -2.031838 -0.178552 0.751702
v -2.124248 -0.178552 0.578815
v -2.181154 -0.178552 0.391222
v -2.200368 -0.178552 0.196131
v -2.181154 -0.178552 0.001041
v -2.124248 -0.178552 -0.186552
v -2.031837 -0.178552 -0.359439
v -1.907474 -0.178552 -0.510976
v -1.755938 -0.178552 -0.635338
v -1.583050 -0.178552 -0.727748
v -1.395457 -0.178552 -0.784653
vn 0.0878 0.4455 -0.8910
vn 0.2599 0.4455 -0.8567
vn 0.4220 0.4455 -0.7896
vn 0.5680 0.4455 -0.6921
vn 0.6921 0.4455 -0.5680
vn 0.7896 0.4455 -0.4220
vn 0.8567 0.4455 -0.2599
vn 0.8910 0.4455 -0.0878
vn 0.8910 0.4455 0.0878
vn 0.8567 0.4455 0.2599
vn 0.7896 0.4455 0.4220
vn 0.6921 0.4455 0.5680
vn 0.5680 0.4455 0.6921
vn 0.4220 0.4455 0.7896
vn 0.2599 0.4455 0.8567
vn 0.0878 0.4455 0.8910
vn -0.0878 0.4455 0.8910
vn -0.2599 0.4455 0.8567
vn -0.4220 0.4455 0.7896
vn -0.5680 0.4455 0.6921
vn -0.6921 0.4455 0.5680
vn -0.7896 0.4455 0.4220
vn -0.8567 0.4455 0.2599
vn -0.8910 0.4455 0.0878
vn -0.8910 0.4455 -0.0878
vn -0.8567 0.4455 -0.2599
vn -0.7896 0.4455 -0.4220
vn -0.6921 0.4455 -0.5680
vn -0.5680 0.4455 -0.6921
vn -0.4220 0.4455 -0.7896
vn -0.2599 0.4455 -0.8567
vn -0.0878 0.4455 -0.8910
vn 0.0000 -1.0000 0.0000
usemtl None
s off
f 1//1 2//1 3//1
f 3//2 2//2 4//2
f 4//3 2//3 5//3
f 5//4 2//4 6//4
f 6//5 2//5 7//5
f 7//6 2//6 8//6
f 8//7 2//7 9//7
f 9//8 2//8 10//8
f 10//9 2//9 11//9
f 11//10 2//10 12//10
f 12//11 2//11 13//11
f 13//12 2//12 14//12
f 14//13 2//13 15//13
f 15//14 2//14 16//14
f 16//15 2//15 17//15
f 17//16 2//16 18//16
f 18//17 2//17 19//17
f 19//18 2//18 20//18
f 20//19 2//19 21//19
f 21//20 2//20 22//20
f 22//21 2//21 23//21
f 23//22 2//22 24//22
f 24//23 2//23 25//23
f 25//24 2//24 26//24
f 26//25 2//25 27//25
f 27//26 2//26 28//26
f 28//27 2//27 29//27
f 29//28 2//28 30//28
f 30//29 2//29 31//29
f 31//30 2//30 32//30
f 32//31 2//31 33//31
f 33//32 2//32 1//32
f 1//33 3//33 4//33 5//33 6//33 7//33 8//33 9//33 10//33 11//33 12//33 13//33 14//33 15//33 16//33 17//33 18//33 19//33 20//33 21//33 22//33 23//33 24//33 25//33 26//33 27//33 28//33 29//33 30//33 31//33 32//33 33//33
o Cube_Cube.001
v -1.237243 -0.179899 2.282364
v -1.237243 -0.028864 2.282364
v -1.237243 -0.179899 -1.759487
v -1.237243 -0.028864 -1.759487
v 0.762757 -0.179899 2.282364
v 0.762757 -0.028864 2.282364
v 0.762757 -0.179899 -1.759487
v 0.762757 -0.028864 -1.759487
v 0.755598 -0.176041 2.282127
v 0.755598 0.154722 2.282127
v 0.755598 -0.176041 -1.757120
v 0.755598 0.154722 -1.757120
v 1.000609 -0.176041 2.282127
v 1.000609 0.154722 2.282127
v 1.000609 -0.176041 -1.757120
v 1.000609 0.154722 -1.757120
vn -1.0000 0.0000 0.0000
vn 0.0000 0.0000 -1.0000
vn 1.0000 0.0000 0.0000
vn 0.0000 0.0000 1.0000
vn 0.0000 -1.0000 0.0000
vn 0.0000 1.0000 0.0000
usemtl None
s off
f 34//34 35//34 37//34 36//34
f 36//35 37//35 41//35 40//35
f 40//36 41//36 39//36 38//36
f 38//37 39//37 35//37 34//37
f 36//38 40//38 38//38 34//38
f 41//39 37//39 35//39 39//39
f 42//34 43//34 45//34 44//34
f 44//35 45//35 49//35 48//35
f 48//36 49//36 47//36 46//36
f 46//37 47//37 43//37 42//37
f 44//38 48//38 46//38 42//38
f 49//39 45//39 43//39 47//39
