# Blender v2.79 (sub 0) OBJ File: 'TestLevel.blend'
# www.blender.org
mtllib TestLevel.mtl
o Cube.001_Cube.002
v -5.746835 -0.059861 1.245530
v -5.746835 0.340492 1.245530
v -5.746835 -0.059861 1.085718
v -5.746835 0.340492 1.085718
v 1.185148 -0.059861 1.245530
v 1.185148 0.340492 1.245530
v 1.185148 -0.059861 1.085718
v 1.185148 0.340492 1.085718
vt 0.000000 0.000000
vt 1.000000 1.000000
vt 0.000000 1.000000
vt 1.000000 0.000000
vt 0.000000 1.000000
vt 0.000000 0.000000
vt 1.000000 0.000000
vt 0.000000 1.000000
vt 0.000000 0.000000
vt 1.000000 0.000000
vt 0.000000 0.000000
vt 1.000000 0.000000
vt 0.000000 1.000000
vt 0.000000 0.000000
vt 1.000000 1.000000
vt 1.000000 1.000000
vt 1.000000 1.000000
vt 1.000000 1.000000
vn -1.0000 0.0000 0.0000
vn 0.0000 0.0000 -1.0000
vn 1.0000 0.0000 0.0000
vn 0.0000 0.0000 1.0000
vn 0.0000 -1.0000 0.0000
vn 0.0000 1.0000 0.0000
usemtl None
s off
f 2/1/1 3/2/1 1/3/1
f 4/4/2 7/5/2 3/6/2
f 8/7/3 5/8/3 7/9/3
f 6/10/4 1/3/4 5/11/4
f 7/12/5 1/3/5 3/6/5
f 4/4/6 6/13/6 8/14/6
f 2/1/1 4/4/1 3/2/1
f 4/4/2 8/15/2 7/5/2
f 8/7/3 6/16/3 5/8/3
f 6/10/4 2/17/4 1/3/4
f 7/12/5 5/18/5 1/3/5
f 4/4/6 2/17/6 6/13/6
o Cube
v -5.574961 -0.060197 1.085746
v -5.574961 0.054362 1.085746
v -5.574961 -0.060197 -0.914254
v -5.574961 0.054362 -0.914254
v 1.185115 -0.060197 1.085746
v 1.185115 0.054362 1.085746
v 1.185115 -0.060197 -0.914254
v 1.185115 0.054362 -0.914254
vt 0.000001 1.000000
vt 0.999999 0.000000
vt 1.000000 1.000000
vt 1.000000 0.000000
vt 0.000000 1.000000
vt 0.000000 0.000000
vt 1.000000 0.000000
vt 0.000000 1.000000
vt 0.000000 0.000000
vt 1.000000 0.000000
vt 0.000000 1.000000
vt 0.000000 0.000000
vt 1.000000 0.000000
vt 0.000000 1.000000
vt 0.000000 0.000000
vt 0.000000 0.000000
vt 1.000000 1.000000
vt 1.000000 1.000000
vt 1.000000 1.000000
vt 1.000000 1.000000
vn -1.0000 0.0000 0.0000
vn 0.0000 0.0000 -1.0000
vn 1.0000 0.0000 0.0000
vn 0.0000 0.0000 1.0000
vn 0.0000 -1.0000 0.0000
vn 0.0000 1.0000 0.0000
usemtl None
s off
f 10/19/7 11/20/7 9/21/7
f 12/22/8 15/23/8 11/24/8
f 16/25/9 13/26/9 15/27/9
f 14/28/10 9/29/10 13/30/10
f 15/31/11 9/29/11 11/24/11
f 12/22/12 14/32/12 16/33/12
f 10/19/7 12/34/7 11/20/7
f 12/22/8 16/35/8 15/23/8
f 16/25/9 14/36/9 13/26/9
f 14/28/10 10/37/10 9/29/10
f 15/31/11 13/38/11 9/29/11
f 12/22/12 10/37/12 14/32/12
o Cube.002_Cube.004
v -5.744208 -0.061618 -0.904711
v -5.744208 0.332770 -0.904711
v -5.744208 -0.061618 -1.064523
v -5.744208 0.332770 -1.064523
v 1.187775 -0.061618 -0.904711
v 1.187775 0.332770 -0.904711
v 1.187775 -0.061618 -1.064523
v 1.187775 0.332770 -1.064523
vt 0.000000 0.000000
vt 1.000000 1.000000
vt 0.000000 1.000000
vt 1.000000 0.000000
vt 0.000000 1.000000
vt 0.000000 0.000000
vt 1.000000 0.000000
vt 0.000000 1.000000
vt 0.000000 0.000000
vt 1.000000 0.000000
vt 0.000000 0.000000
vt 1.000000 0.000000
vt 0.000000 1.000000
vt 0.000000 0.000000
vt 1.000000 1.000000
vt 1.000000 1.000000
vt 1.000000 1.000000
vt 1.000000 1.000000
vn -1.0000 0.0000 0.0000
vn 0.0000 0.0000 -1.0000
vn 1.0000 0.0000 0.0000
vn 0.0000 0.0000 1.0000
vn 0.0000 -1.0000 0.0000
vn 0.0000 1.0000 0.0000
usemtl None
s off
f 18/39/13 19/40/13 17/41/13
f 20/42/14 23/43/14 19/44/14
f 24/45/15 21/46/15 23/47/15
f 22/48/16 17/41/16 21/49/16
f 23/50/17 17/41/17 19/44/17
f 20/42/18 22/51/18 24/52/18
f 18/39/13 20/42/13 19/40/13
f 20/42/14 24/53/14 23/43/14
f 24/45/15 22/54/15 21/46/15
f 22/48/16 18/55/16 17/41/16
f 23/50/17 21/56/17 17/41/17
f 20/42/18 18/55/18 22/51/18
o Cube.003_Cube.005
v 1.082098 -0.060069 1.237754
v 1.082098 0.338162 1.237754
v 1.082098 -0.060069 -1.060660
v 1.082098 0.338162 -1.060660
v 1.281933 -0.060069 1.237754
v 1.281933 0.338162 1.237754
v 1.281933 -0.060069 -1.060660
v 1.281933 0.338162 -1.060660
vt 1.000000 0.000000
vt 0.000000 1.000000
vt 0.000000 0.000000
vt 1.000000 0.000000
vt 0.000000 1.000000
vt 0.000000 0.000000
vt 1.000000 0.000000
vt 0.000000 1.000000
vt 0.000000 0.000000
vt 0.000000 0.000000
vt 1.000000 1.000000
vt 1.000000 0.000000
vt 0.000000 1.000000
vt 0.000000 1.000000
vt 0.000000 0.000000
vt 1.000000 1.000000
vt 1.000000 1.000000
vt 1.000000 1.000000
vt 1.000000 1.000000
vt 1.000000 1.000000
vn -1.0000 0.0000 0.0000
vn 0.0000 0.0000 -1.0000
vn 1.0000 0.0000 0.0000
vn 0.0000 0.0000 1.0000
vn 0.0000 -1.0000 0.0000
vn 0.0000 1.0000 0.0000
usemtl None
s off
f 26/57/19 27/58/19 25/59/19
f 28/60/20 31/61/20 27/62/20
f 32/63/21 29/64/21 31/65/21
f 30/66/22 25/67/22 29/64/22
f 31/68/23 25/69/23 27/62/23
f 28/60/24 30/70/24 32/71/24
f 26/57/19 28/72/19 27/58/19
f 28/60/20 32/73/20 31/61/20
f 32/63/21 30/74/21 29/64/21
f 30/66/22 26/57/22 25/67/22
f 31/68/23 29/75/23 25/69/23
f 28/60/24 26/76/24 30/70/24
o Cube.005_Cube.008
v -5.750230 -0.060069 1.237754
v -5.750230 0.332227 1.237754
v -5.750230 -0.060069 -1.060660
v -5.750230 0.332227 -1.060660
v -5.550395 -0.060069 1.237754
v -5.550395 0.332227 1.237754
v -5.550395 0.065156 -1.060660
v -5.550395 0.332227 -1.060660
vt 1.000000 0.000000
vt 0.000000 1.000000
vt 0.000000 0.000000
vt 1.000000 0.000000
vt 0.000000 1.000000
vt 0.000000 0.000000
vt 0.000000 0.000000
vt 1.000000 1.000000
vt 0.000000 1.000000
vt 0.000000 0.000000
vt 1.000000 1.000000
vt 1.000000 1.000000
vt 0.000000 1.000000
vt 0.000000 1.000000
vt 0.000000 0.000000
vt 1.000000 1.000000
vt 1.000000 1.000000
vt 1.000000 0.000000
vt 1.000000 0.000000
vt 1.000000 1.000000
vn -1.0000 0.0000 0.0000
vn -0.0000 0.0000 -1.0000
vn 1.0000 0.0000 0.0000
vn 0.0000 0.0000 1.0000
vn 0.0000 -1.0000 0.0000
vn 0.0000 1.0000 0.0000
vn 0.5304 -0.8465 -0.0461
usemtl None
s off
f 34/77/25 35/78/25 33/79/25
f 36/80/26 39/81/26 35/82/26
f 39/83/27 38/84/27 37/85/27
f 38/86/28 33/87/28 37/85/28
f 35/82/29 37/88/29 33/89/29
f 36/80/30 38/90/30 40/91/30
f 34/77/25 36/92/25 35/78/25
f 36/80/26 40/93/26 39/81/26
f 39/83/27 40/94/27 38/84/27
f 38/86/28 34/77/28 33/87/28
f 35/82/31 39/95/31 37/88/31
f 36/80/30 34/96/30 38/90/30
